<svg width="29" height="29" viewBox="0 0 29 29" fill="none" xmlns="http://www.w3.org/2000/svg">
<path d="M14.155 9.43659H4.71833C4.09264 9.43659 3.49257 9.68515 3.05015 10.1276C2.60772 10.57 2.35916 11.1701 2.35916 11.7958V16.5141C2.35916 17.1398 2.60772 17.7398 3.05015 18.1823C3.49257 18.6247 4.09264 18.8733 4.71833 18.8733H5.89791V23.5916C5.89791 23.9044 6.02219 24.2045 6.2434 24.4257C6.46462 24.6469 6.76465 24.7712 7.07749 24.7712H9.43666C9.74951 24.7712 10.0495 24.6469 10.2708 24.4257C10.492 24.2045 10.6162 23.9044 10.6162 23.5916V18.8733H14.155L20.0529 23.5916V4.71826L14.155 9.43659ZM25.361 14.1549C25.361 16.172 24.2286 18.0004 22.4121 18.8733V9.43659C24.2168 10.3213 25.361 12.1496 25.361 14.1549Z" fill="#FFD900"/>
</svg>
