<svg width="29" height="29" viewBox="0 0 29 29" fill="none" xmlns="http://www.w3.org/2000/svg">
<path d="M21.2325 3.53882H7.07746V8.25715H21.2325M22.412 14.1551C22.0992 14.1551 21.7992 14.0308 21.578 13.8096C21.3567 13.5884 21.2325 13.2883 21.2325 12.9755C21.2325 12.6626 21.3567 12.3626 21.578 12.1414C21.7992 11.9202 22.0992 11.7959 22.412 11.7959C22.7249 11.7959 23.0249 11.9202 23.2461 12.1414C23.4674 12.3626 23.5916 12.6626 23.5916 12.9755C23.5916 13.2883 23.4674 13.5884 23.2461 13.8096C23.0249 14.0308 22.7249 14.1551 22.412 14.1551ZM18.8733 22.4122H9.43663V16.5142H18.8733M22.412 9.43674H5.89788C4.95935 9.43674 4.05925 9.80957 3.39561 10.4732C2.73196 11.1369 2.35913 12.037 2.35913 12.9755V20.053H7.07746V24.7713H21.2325V20.053H25.9508V12.9755C25.9508 12.037 25.578 11.1369 24.9143 10.4732C24.2507 9.80957 23.3506 9.43674 22.412 9.43674Z" fill="#FFD900"/>
</svg>
