<svg width="29" height="29" viewBox="0 0 29 29" fill="none" xmlns="http://www.w3.org/2000/svg">
<path d="M5.87396 11.4258C3.53092 10.489 2.35941 10.0207 2.35941 9.43785C2.35941 8.85504 3.53092 8.38785 5.87396 7.44993L9.18677 6.12504C11.5298 5.18712 12.7025 4.71875 14.1572 4.71875C15.6118 4.71875 16.7845 5.18712 19.1276 6.12504L22.4404 7.44993C24.7834 8.38667 25.9549 8.85504 25.9549 9.43785C25.9549 10.0207 24.7834 10.4879 22.4404 11.4258L19.1276 12.7518C16.7845 13.6886 15.6118 14.157 14.1572 14.157C12.7025 14.157 11.5298 13.6886 9.18677 12.7518L5.87396 11.4258Z" fill="#FFD900"/>
<path fill-rule="evenodd" clip-rule="evenodd" d="M2.35941 9.43785C2.35941 10.0207 3.53092 10.4879 5.87396 11.4258L9.18677 12.7518C11.5298 13.6886 12.7025 14.157 14.1572 14.157C15.6118 14.157 16.7845 13.6886 19.1276 12.7518L22.4404 11.4258C24.7834 10.489 25.9549 10.0207 25.9549 9.43785C25.9549 8.85504 24.7834 8.38785 22.4404 7.44993L19.1276 6.12504C16.7845 5.18712 15.6118 4.71875 14.1572 4.71875C12.7025 4.71875 11.5298 5.18712 9.18677 6.12504L5.87514 7.44993C3.53092 8.38667 2.35941 8.85504 2.35941 9.43785Z" fill="#FFD900"/>
<path d="M22.4404 16.1454L19.1276 17.4715C16.7845 18.4082 15.6118 18.8766 14.1572 18.8766C12.7025 18.8766 11.5298 18.4082 9.18677 17.4715L5.87514 16.1454C3.53092 15.2087 2.35941 14.7391 2.35941 14.1575C2.35941 13.6325 3.31148 13.1995 5.21446 12.4338L8.92014 13.9156C11.1027 14.7887 12.4724 15.3373 14.1572 15.3373C15.8419 15.3373 17.2128 14.7887 19.3942 13.9156L23.0987 12.4338C25.004 13.2007 25.9549 13.6325 25.9549 14.1575C25.9549 14.7391 24.7834 15.2075 22.4404 16.1454Z" fill="#FFD900"/>
<path d="M22.4404 20.8644L19.1276 22.1893C16.7845 23.1272 15.6118 23.5956 14.1572 23.5956C12.7025 23.5956 11.5298 23.1272 9.18677 22.1893L5.87514 20.8644C3.53092 19.9265 2.35941 19.4581 2.35941 18.8765C2.35941 18.3515 3.31148 17.9185 5.21446 17.1528L8.92014 18.6346C11.1027 19.5077 12.4724 20.0563 14.1572 20.0563C15.8419 20.0563 17.2128 19.5077 19.3942 18.6346L23.0987 17.1528C25.0029 17.9197 25.9549 18.3515 25.9549 18.8753C25.9549 19.4581 24.7834 19.9265 22.4404 20.8644Z" fill="#FFD900"/>
</svg>
