<svg width="20" height="20" viewBox="0 0 20 20" fill="none" xmlns="http://www.w3.org/2000/svg">
<g clip-path="url(#clip0_729_192)">
<path d="M8.10143 9.50713C7.53917 9.50713 6.98953 9.67386 6.52203 9.98624C6.05452 10.2986 5.69015 10.7426 5.47498 11.2621C5.25981 11.7815 5.20351 12.3531 5.3132 12.9046C5.42289 13.4561 5.69365 13.9626 6.09123 14.3602C6.48881 14.7578 6.99536 15.0285 7.54682 15.1382C8.09828 15.2479 8.66988 15.1916 9.18935 14.9764C9.70881 14.7613 10.1528 14.3969 10.4652 13.9294C10.7776 13.4619 10.9443 12.9123 10.9443 12.35V4.80713C11.3843 6.69427 12.6514 8.00999 14.7414 8.00999" stroke="white" stroke-width="1.5" stroke-linecap="round" stroke-linejoin="round"/>
<path d="M1.37144 14.6699C1.48439 15.675 1.9348 16.6122 2.64911 17.3283C3.36343 18.0444 4.29944 18.4972 5.3043 18.6127C6.83287 18.7827 8.40001 18.9284 10 18.9284C11.6 18.9284 13.1686 18.7827 14.6957 18.6113C15.7006 18.4958 16.6366 18.043 17.3509 17.3269C18.0652 16.6107 18.5156 15.6736 18.6286 14.6684C18.7914 13.1499 18.9286 11.5899 18.9286 9.99986C18.9286 8.40986 18.7914 6.84986 18.6286 5.32986C18.5156 4.32471 18.0652 3.38755 17.3509 2.67142C16.6366 1.95529 15.7006 1.50251 14.6957 1.387C13.1672 1.21843 11.6 1.07129 10 1.07129C8.40001 1.07129 6.83144 1.217 5.3043 1.38843C4.29944 1.50394 3.36343 1.95672 2.64911 2.67285C1.9348 3.38898 1.48439 4.32614 1.37144 5.33129C1.20858 6.84843 1.07144 8.40843 1.07144 9.99986C1.07144 11.5913 1.20858 13.1499 1.37144 14.6699Z" stroke="white" stroke-width="1.5" stroke-linecap="round" stroke-linejoin="round"/>
</g>
<defs>
<clipPath id="clip0_729_192">
<rect width="20" height="20" fill="white"/>
</clipPath>
</defs>
</svg>
